<?xml version="1.0" encoding="utf-8"?>
<!-- Generator: Adobe Illustrator 21.0.0, SVG Export Plug-In . SVG Version: 6.00 Build 0)  -->
<svg version="1.1" id="Layer_1" xmlns="http://www.w3.org/2000/svg" xmlns:xlink="http://www.w3.org/1999/xlink" x="0px" y="0px"
	 viewBox="0 0 1200 1200" style="enable-background:new 0 0 1200 1200;" xml:space="preserve">
<style type="text/css">
	.st0{fill:url(#SVGID_1_);}
	.st1{fill:url(#SVGID_2_);}
	.st2{fill:#534140;}
	.st3{fill-rule:evenodd;clip-rule:evenodd;}
	.st4{fill:url(#SVGID_3_);}
	.st5{fill:url(#SVGID_4_);}
</style>
<g>
	
		<linearGradient id="SVGID_1_" gradientUnits="userSpaceOnUse" x1="3125.8333" y1="756.0846" x2="4179.8325" y2="756.0846" gradientTransform="matrix(1 0 0 1 -3089.5273 0)">
		<stop  offset="4.878050e-03" style="stop-color:#006EB9"/>
		<stop  offset="1" style="stop-color:#004C84"/>
	</linearGradient>
	<path class="st0" d="M36.3,904.3c0,0,106.5-33.9,290.5-52.3c259.6-10.2,303.3-18.1,433.6-40.7c273.1-44.8,329.8-203.4,329.8-203.4
		s-84.2,71.8-273.2,116.1c-169.8,30.7-354.9,50.3-487.9,73.5C213.6,822.5,36.3,904.3,36.3,904.3z"/>
	
		<linearGradient id="SVGID_2_" gradientUnits="userSpaceOnUse" x1="3173.7712" y1="326.7217" x2="3997.1284" y2="326.7217" gradientTransform="matrix(0.985 0.1725 -0.1725 0.985 -2998.394 -57.6261)">
		<stop  offset="4.878050e-03" style="stop-color:#006EB9"/>
		<stop  offset="1" style="stop-color:#004C84"/>
	</linearGradient>
	<path class="st1" d="M51.4,925.7c0,0,86.5-11.6,230.6-1c201.1,27,235.9,26.9,339.1,27.1c216.2,2.4,281.2-112.1,281.2-112.1
		s-74.5,43.9-225.9,52.5C541.7,893,396.6,883,291.2,883C198.9,886.7,51.4,925.7,51.4,925.7z"/>
	<path class="st2" d="M65.1,947.2c0,0,60.6,2.3,157.9,26.6c134.4,42.2,158.2,46.3,228.9,58.6c147.6,27.3,205.6-43.4,205.6-43.4
		s-56.1,21.3-160.7,9.3c-92.4-15.6-190.5-39.4-262.6-52C170.6,937.9,65.1,947.2,65.1,947.2z"/>
	<path class="st3" d="M808.5,249.3c-1,2.1-1.8,2.2-2.3,0C807,249.3,807.8,249.3,808.5,249.3z"/>
	
		<linearGradient id="SVGID_3_" gradientUnits="userSpaceOnUse" x1="3536.3582" y1="872.8029" x2="3544.6118" y2="872.8029" gradientTransform="matrix(1 0 0 1 -3089.5273 0)">
		<stop  offset="4.878050e-03" style="stop-color:#006EB9"/>
		<stop  offset="1" style="stop-color:#004C84"/>
	</linearGradient>
	<path class="st4" d="M446.8,871.6c1.3,0.9,2.6,1.6,3.9,2.5c1.5-0.3,2.9-0.5,4.4-0.9C452.3,872.7,449.7,872.2,446.8,871.6z"/>
	
		<linearGradient id="SVGID_4_" gradientUnits="userSpaceOnUse" x1="3917.5454" y1="288.6068" x2="3441.0671" y2="952.7894" gradientTransform="matrix(1 0 0 1 -3089.5273 0)">
		<stop  offset="0" style="stop-color:#74C377"/>
		<stop  offset="1" style="stop-color:#5B9843"/>
	</linearGradient>
	<path class="st5" d="M1163.7,273.4c-87.1,66.6-274.1,123-294.6,125.5c-435.6,97.4-594.4,269-638.3,300.5l0.1-0.1l-0.3-0.2
		c0.2-0.5,37.5-48.8,104.5-108.3c5.1-4.6,10.7-8.7,16-13.2c10.7-9.1,21.9-18.5,33.9-28c7.9-6.2,15.8-12.1,23.8-18.2
		c11.9-8.7,24.2-17.6,37.2-26.4c4.6-3.1,9-6.6,13.7-9.7c3-2,6.2-3.5,9.2-5.4c21.6-13.9,44.5-27.5,68.7-40.4
		c4.9-2.7,9.9-4.9,14.8-7.4c19.8-10.1,40.3-19.7,61.6-28.7c4.1-1.7,8.2-4,12.3-5.6c22.3-9.8,56.4-22.3,100.1-38.4
		c81.8-29.9,192.3-70.8,303.4-122.1c-85.1-54.2-185.8-86-294.1-86c-303,0-548.7,245.7-548.7,548.7c0,22.9,7,83.3,7.6,90.5
		c0.1-0.1,0.3-0.1,0.5-0.2c0.1,0.5,0.1,0.9,0.2,1.4c4.6-2.2,10-4.6,14.7-6.8c87.7-32.2,191.1-54.1,221.6-61.4
		c477-65,655.8-179.6,704.7-226.4c-96.4,52.2-289.9,79-310.6,78.3c-287.8,18.4-465.1,84.9-568,136.4
		c85.6-54.4,211.6-101.7,244.9-115.3C963.9,468.2,1122.7,327.3,1163.7,273.4z M193.9,773.5C193.9,773.5,193.9,773.5,193.9,773.5
		l0,0.1L193.9,773.5z"/>
</g>
</svg>
